# xmcd
#
# Track frame offsets:
#	150
#	11214
#	24433
#	34715
#	52611
#	64269
#	76458
#	88672
#	100588
#	110055
#	139055
#	153722
#	168765
#	180648
#	193803
#
# Disc length: 2860 seconds
#
# Revision: 2
# Processed by: cddbd v1.5.2PL0 Copyright (c) Steve Scherf et al.
# Submitted via: audiograbber 1.83.01
#
DISCID=be0b2a0f
DTITLE=Dwight Yoakam - Dwight sings Buck
DYEAR=2007
DGENRE=Country
TTITLE0=My Heart Skips A Beat
TTITLE1=Foolin' Around
TTITLE2=I Don't Care (Just As Long As
TTITLE3=Only You (Can Break My Heart)
TTITLE4=Act Naturally
TTITLE5=Down On The Corner Of Love
TTITLE6=Cryin' Time
TTITLE7=Above and Beyond
TTITLE8=Love's Gonna Live Here
TTITLE9=Close Up The Honky Tonks
TTITLE10=Under Your Spell Again
TTITLE11=Your Tender Loving Care
TTITLE12=Excuse Me (I Think I've Got A
TTITLE13=Think Of Me
TTITLE14=Together Again
EXTD=
EXTT0=
EXTT1=
EXTT2=
EXTT3=
EXTT4=
EXTT5=
EXTT6=
EXTT7=
EXTT8=
EXTT9=
EXTT10=
EXTT11=
EXTT12=
EXTT13=
EXTT14=
PLAYORDER=
